<svg version="1.1" id="Layer_1" xmlns="http://www.w3.org/2000/svg" xmlns:xlink="http://www.w3.org/1999/xlink" x="0px" y="0px"
	 width="100%" viewBox="0 0 500 500" enable-background="new 0 0 500 500" xml:space="preserve">

<path fill="#9BBDFF" opacity="1.000000" stroke="none" 
	d="
M140.252762,54.245255 
	C161.199081,40.689423 183.823654,31.758812 207.401901,25.441967 
	C218.162231,22.559170 229.443436,21.474543 240.552277,20.085209 
	C249.344025,18.985662 258.256256,17.894676 267.074524,18.157549 
	C286.327698,18.731489 305.418152,20.832294 324.238861,25.508360 
	C342.365295,30.011917 359.974152,35.993649 376.050507,45.254520 
	C390.599274,53.635445 404.269012,63.634136 417.842194,73.580231 
	C425.236206,78.998398 431.905945,85.508339 438.407745,92.019745 
	C453.031647,106.665215 464.399719,123.674751 471.380707,143.132553 
	C474.512604,151.862045 475.486511,161.423309 476.933563,170.686203 
	C479.086426,184.467300 476.760651,197.912125 473.042145,211.196777 
	C469.138641,225.142105 462.030579,237.334549 452.987610,248.498154 
	C451.031036,250.913574 449.011749,253.278244 447.222992,255.424408 
	C452.578979,262.901031 458.419708,269.942169 463.016998,277.718384 
	C470.989227,291.203278 475.878845,305.659546 477.228210,321.619019 
	C479.005951,342.644440 473.921509,361.978516 464.654266,380.186249 
	C459.562073,390.191101 452.179291,399.112488 445.241089,408.066589 
	C440.601715,414.053833 435.103363,419.418091 429.681763,424.748230 
	C416.609558,437.599976 402.080109,448.743652 385.938477,457.294098 
	C371.010132,465.201843 355.611420,472.498718 339.783081,478.338623 
	C328.065460,482.661804 315.348694,484.320099 303.036499,486.977600 
	C287.606628,490.308044 271.887787,490.742279 256.265381,489.821228 
	C242.122437,488.987457 227.914429,487.443146 214.011795,484.772064 
	C192.990158,480.733246 173.204575,472.657898 154.339157,462.634796 
	C137.535614,453.707153 121.945580,443.004517 107.576645,430.333160 
	C92.684273,417.200195 79.884979,402.420380 68.669403,386.181244 
	C53.099525,363.637512 42.290356,338.815369 35.383755,312.427704 
	C32.518871,301.481964 31.045507,290.045258 30.174398,278.736725 
	C29.106480,264.873260 28.579288,250.874588 29.233473,237.001099 
	C29.774836,225.520233 31.840506,214.026443 34.178226,202.734497 
	C37.918365,184.668381 44.283577,167.369522 52.657726,150.958160 
	C61.209385,134.198929 70.957283,118.114639 83.548431,103.955528 
	C88.771812,98.081696 93.625313,91.827011 99.264633,86.385597 
	C111.716057,74.371162 125.021523,63.355614 140.252762,54.245255 
M108.120209,148.666534 
	C104.447884,154.809601 100.510056,160.811142 97.147957,167.119553 
	C80.106979,199.093979 73.178864,233.161484 75.861305,269.322540 
	C77.930298,297.213928 85.955261,323.176819 99.716423,347.430084 
	C117.004189,377.898743 141.297302,401.322479 171.721924,418.448242 
	C213.823135,442.146759 258.649567,449.251038 305.811920,438.849579 
	C349.532410,429.207184 386.088409,407.243866 414.248810,372.145020 
	C425.279663,358.396271 432.706299,342.711517 430.605408,324.703369 
	C427.819458,300.823303 413.933746,284.421753 392.071655,275.197144 
	C371.312012,266.437622 352.093231,271.254883 334.967804,284.643890 
	C327.676544,290.344360 321.794983,297.812286 314.961823,304.141266 
	C296.444458,321.292358 274.844513,328.971405 249.755310,323.359222 
	C214.214554,315.409180 191.208771,282.394226 196.043884,245.608185 
	C199.801422,217.020401 215.618057,196.903122 243.128448,187.776154 
	C269.608887,178.990906 293.779999,184.648239 314.353760,203.723877 
	C320.200836,209.145187 325.443268,215.245255 330.727783,221.241318 
	C342.579987,234.689407 357.343689,240.364700 375.198914,239.298920 
	C415.211884,236.910507 441.233917,197.116104 427.265320,159.530792 
	C420.437622,141.159485 408.230408,126.889565 393.728912,114.287544 
	C342.808899,70.037331 284.217865,55.052128 218.855057,71.201500 
	C172.727554,82.598366 136.025131,109.127724 108.120209,148.666534 
M235.598419,290.227814 
	C237.346329,289.684235 239.420258,289.567719 240.786758,288.524506 
	C247.355972,283.509674 254.340652,285.013580 261.608154,286.313660 
	C275.517670,288.801910 288.528015,285.788727 300.120270,277.859833 
	C318.746368,265.119873 319.992035,242.878952 303.485718,228.103714 
	C287.071564,213.410950 253.270721,212.606583 235.945602,226.738678 
	C223.729797,236.703125 219.690872,250.082748 225.986404,262.513824 
	C228.339157,267.159485 231.950302,271.310974 235.584763,275.117737 
	C238.336823,278.000244 238.381363,280.308899 235.750916,282.707642 
	C233.435349,284.819214 230.718979,286.491028 228.181503,288.359650 
	C226.971115,289.250977 225.765106,290.148254 224.557114,291.042816 
	C224.742432,291.423157 224.927750,291.803497 225.113068,292.183807 
	C228.350769,291.614594 231.588455,291.045349 235.598419,290.227814 
z"/>
<path fill="#0155FF" opacity="1.000000" stroke="none" 
	d="
M108.322021,148.367065 
	C136.025131,109.127724 172.727554,82.598366 218.855057,71.201500 
	C284.217865,55.052128 342.808899,70.037331 393.728912,114.287544 
	C408.230408,126.889565 420.437622,141.159485 427.265320,159.530792 
	C441.233917,197.116104 415.211884,236.910507 375.198914,239.298920 
	C357.343689,240.364700 342.579987,234.689407 330.727783,221.241318 
	C325.443268,215.245255 320.200836,209.145187 314.353760,203.723877 
	C293.779999,184.648239 269.608887,178.990906 243.128448,187.776154 
	C215.618057,196.903122 199.801422,217.020401 196.043884,245.608185 
	C191.208771,282.394226 214.214554,315.409180 249.755310,323.359222 
	C274.844513,328.971405 296.444458,321.292358 314.961823,304.141266 
	C321.794983,297.812286 327.676544,290.344360 334.967804,284.643890 
	C352.093231,271.254883 371.312012,266.437622 392.071655,275.197144 
	C413.933746,284.421753 427.819458,300.823303 430.605408,324.703369 
	C432.706299,342.711517 425.279663,358.396271 414.248810,372.145020 
	C386.088409,407.243866 349.532410,429.207184 305.811920,438.849579 
	C258.649567,449.251038 213.823135,442.146759 171.721924,418.448242 
	C141.297302,401.322479 117.004189,377.898743 99.716423,347.430084 
	C85.955261,323.176819 77.930298,297.213928 75.861305,269.322540 
	C73.178864,233.161484 80.106979,199.093979 97.147957,167.119553 
	C100.510056,160.811142 104.447884,154.809601 108.322021,148.367065 
M124.732277,348.758545 
	C137.075897,367.711823 152.421600,383.870148 171.464478,396.022980 
	C216.863174,424.995544 265.766296,431.981781 317.353333,416.653839 
	C328.825653,413.245056 339.519928,406.953430 350.211639,401.306030 
	C354.789398,398.888062 355.795074,393.890808 353.986969,390.580719 
	C351.664520,386.329071 346.933105,384.648438 341.863373,386.510406 
	C338.743591,387.656189 335.718903,389.076111 332.698029,390.473511 
	C313.928802,399.155762 294.305084,404.978973 273.621399,405.807190 
	C233.120285,407.428894 197.177872,395.239075 166.501266,368.445831 
	C119.026039,326.980469 102.398308,258.873688 125.774902,200.401932 
	C129.581100,190.881516 135.008072,181.997131 139.853516,172.908127 
	C143.407333,166.241943 141.580566,160.515106 134.994873,158.541763 
	C130.428177,157.173386 125.811470,159.657990 121.864021,166.289673 
	C106.951569,191.342392 98.216049,218.374680 97.119453,247.585983 
	C95.757301,283.871216 104.612198,317.514099 124.732277,348.758545 
M231.371399,150.805130 
	C223.340347,153.234314 215.590225,156.229111 209.735519,162.594116 
	C206.951294,165.621002 206.433975,169.058380 208.892334,172.605530 
	C211.312332,176.097321 214.422379,177.869446 218.716782,176.167175 
	C221.494781,175.065994 224.297882,173.993149 226.971573,172.669037 
	C258.672729,156.969666 298.586456,161.985825 325.048859,185.445374 
	C332.877136,192.385330 340.022064,200.109787 347.323059,207.627243 
	C355.346741,215.888763 364.878937,220.104919 376.462219,218.946335 
	C385.279724,218.064377 393.504395,215.629944 399.346313,208.332779 
	C402.498993,204.394745 402.417938,199.530991 399.436829,195.925613 
	C396.607666,192.504013 391.521362,191.729782 387.168457,194.133835 
	C386.009613,194.773865 384.983093,195.649841 383.876251,196.388168 
	C375.607117,201.904083 366.485657,201.373352 359.141144,194.697296 
	C356.446014,192.247452 354.091125,189.406265 351.703400,186.638062 
	C339.709167,172.732666 326.008118,161.082138 308.883057,153.885254 
	C283.708405,143.305466 258.067749,143.584015 231.371399,150.805130 
M154.652512,133.691925 
	C147.558197,132.693588 142.721359,135.941010 141.486389,142.531601 
	C140.414276,148.253052 143.815903,153.179947 149.896072,154.712143 
	C155.230484,156.056396 160.184494,153.312469 162.133408,147.934067 
	C164.276215,142.020569 161.953751,137.177597 154.652512,133.691925 
z"/>
<path fill="#FEFFFF" opacity="1.000000" stroke="none" 
	d="
M235.212280,290.351990 
	C231.588455,291.045349 228.350769,291.614594 225.113068,292.183807 
	C224.927750,291.803497 224.742432,291.423157 224.557114,291.042816 
	C225.765106,290.148254 226.971115,289.250977 228.181503,288.359650 
	C230.718979,286.491028 233.435349,284.819214 235.750916,282.707642 
	C238.381363,280.308899 238.336823,278.000244 235.584763,275.117737 
	C231.950302,271.310974 228.339157,267.159485 225.986404,262.513824 
	C219.690872,250.082748 223.729797,236.703125 235.945602,226.738678 
	C253.270721,212.606583 287.071564,213.410950 303.485718,228.103714 
	C319.992035,242.878952 318.746368,265.119873 300.120270,277.859833 
	C288.528015,285.788727 275.517670,288.801910 261.608154,286.313660 
	C254.340652,285.013580 247.355972,283.509674 240.786758,288.524506 
	C239.420258,289.567719 237.346329,289.684235 235.212280,290.351990 
z"/>
<path fill="#99BCFF" opacity="1.000000" stroke="none" 
	d="
M124.528618,348.458801 
	C104.612198,317.514099 95.757301,283.871216 97.119453,247.585983 
	C98.216049,218.374680 106.951569,191.342392 121.864021,166.289673 
	C125.811470,159.657990 130.428177,157.173386 134.994873,158.541763 
	C141.580566,160.515106 143.407333,166.241943 139.853516,172.908127 
	C135.008072,181.997131 129.581100,190.881516 125.774902,200.401932 
	C102.398308,258.873688 119.026039,326.980469 166.501266,368.445831 
	C197.177872,395.239075 233.120285,407.428894 273.621399,405.807190 
	C294.305084,404.978973 313.928802,399.155762 332.698029,390.473511 
	C335.718903,389.076111 338.743591,387.656189 341.863373,386.510406 
	C346.933105,384.648438 351.664520,386.329071 353.986969,390.580719 
	C355.795074,393.890808 354.789398,398.888062 350.211639,401.306030 
	C339.519928,406.953430 328.825653,413.245056 317.353333,416.653839 
	C265.766296,431.981781 216.863174,424.995544 171.464478,396.022980 
	C152.421600,383.870148 137.075897,367.711823 124.528618,348.458801 
z"/>
<path fill="#99BCFF" opacity="1.000000" stroke="none" 
	d="
M231.751648,150.669800 
	C258.067749,143.584015 283.708405,143.305466 308.883057,153.885254 
	C326.008118,161.082138 339.709167,172.732666 351.703400,186.638062 
	C354.091125,189.406265 356.446014,192.247452 359.141144,194.697296 
	C366.485657,201.373352 375.607117,201.904083 383.876251,196.388168 
	C384.983093,195.649841 386.009613,194.773865 387.168457,194.133835 
	C391.521362,191.729782 396.607666,192.504013 399.436829,195.925613 
	C402.417938,199.530991 402.498993,204.394745 399.346313,208.332779 
	C393.504395,215.629944 385.279724,218.064377 376.462219,218.946335 
	C364.878937,220.104919 355.346741,215.888763 347.323059,207.627243 
	C340.022064,200.109787 332.877136,192.385330 325.048859,185.445374 
	C298.586456,161.985825 258.672729,156.969666 226.971573,172.669037 
	C224.297882,173.993149 221.494781,175.065994 218.716782,176.167175 
	C214.422379,177.869446 211.312332,176.097321 208.892334,172.605530 
	C206.433975,169.058380 206.951294,165.621002 209.735519,162.594116 
	C215.590225,156.229111 223.340347,153.234314 231.751648,150.669800 
z"/>
<path fill="#97BBFF" opacity="1.000000" stroke="none" 
	d="
M155.025177,133.790253 
	C161.953751,137.177597 164.276215,142.020569 162.133408,147.934067 
	C160.184494,153.312469 155.230484,156.056396 149.896072,154.712143 
	C143.815903,153.179947 140.414276,148.253052 141.486389,142.531601 
	C142.721359,135.941010 147.558197,132.693588 155.025177,133.790253 
z"/>
</svg>